<svg xmlns="http://www.w3.org/2000/svg" width="800" height="200" viewBox="0 0 800 200">
  <defs>
    <linearGradient id="bg" x1="0" y1="0" x2="0" y2="1">
      <stop offset="0%" stop-color="#27272a"/>
      <stop offset="100%" stop-color="#18181b"/>
    </linearGradient>
  </defs>

  <!-- Background -->
  <rect width="800" height="200" rx="12" fill="url(#bg)"/>

  <!-- Logo (sm:w-14 sm:h-14 = 56px, aligned to text block) -->
  <svg x="156" y="57" width="80" height="80" viewBox="0 0 33.866666 33.866667">
    <g>
      <g transform="matrix(1.4232434,0,0,1.4232434,16.915196,17.10368)">
        <g stroke="#61dafb" stroke-width="1" fill="none">
          <ellipse rx="11" ry="4.2"/>
          <ellipse rx="11" ry="4.2" transform="rotate(60)"/>
          <ellipse rx="11" ry="4.2" transform="rotate(120)"/>
        </g>
        <ellipse fill="#61dafb" rx="4.215796" ry="4.826261" cx="-0.031601399" cy="0.15913987" style="stroke-width:1.01735"/>
      </g>
      <path d="m 12.509642,30.690503 -0.05834,-0.05685 -7.23e-4,-0.0561 -7.23e-4,-0.05611 0.768979,-2.092476 0.768982,-2.092473 0.556751,-1.543372 0.556748,-1.543368 0.006,-0.120103 0.006,-0.120088 -1.470798,0.0062 -1.470797,0.0062 -0.06194,-0.0727 -0.06194,-0.0727 0.233074,-0.46889 0.233073,-0.468892 0.856189,-1.667244 0.85619,-1.667245 0.41769,-0.85935 0.417689,-0.859349 -0.02911,-0.04578 -0.02911,-0.04576 -1.464266,0.01887 -1.464263,0.01887 -0.09348,-0.0485 -0.09349,-0.0485 -0.0011,-0.08618 -0.0011,-0.08616 0.11036,-0.213586 0.110359,-0.213582 1.014121,-2.024324 1.014119,-2.024327 0.696804,-1.43016 0.696802,-1.4301581 0.701201,-1.4012125 0.701198,-1.4012124 2.501594,-0.044655 2.501597,-0.044655 0.03154,0.079108 0.03152,0.079108 -0.04589,0.1264481 -0.04587,0.1264636 -0.768293,1.3291372 -0.768291,1.3291355 -0.6677,1.1797846 -0.6677,1.179784 0.02576,0.06464 0.02576,0.06464 1.695367,-0.02185 1.695368,-0.02185 0.07639,0.07444 0.07639,0.07446 7.89e-4,0.06124 7.9e-4,0.06124 -0.249474,0.406592 -0.249474,0.40659 -0.614255,0.968038 -0.614255,0.968039 -1.187109,1.911536 -1.187107,1.91154 -0.06878,0.13724 -0.06879,0.13724 0.02683,0.06732 0.02683,0.06732 1.62427,-0.02093 1.624265,-0.02093 0.09295,0.06616 0.09294,0.06612 -0.04534,0.122827 -0.04534,0.122843 -1.34915,1.664026 -1.349152,1.664023 -0.8062,1.018519 -0.8062,1.018517 -0.670268,0.824742 -0.670264,0.824741 -1.724844,2.146499 -1.724842,2.146498 -0.05964,7.69e-4 -0.05966,7.69e-4 z" fill="none" stroke="#000" stroke-width="1.1" stroke-linejoin="round" stroke-linecap="butt"/>
      <path d="m 12.509642,30.690503 -0.05834,-0.05685 -7.23e-4,-0.0561 -7.23e-4,-0.05611 0.768979,-2.092476 0.768982,-2.092473 0.556751,-1.543372 0.556748,-1.543368 0.006,-0.120103 0.006,-0.120088 -1.470798,0.0062 -1.470797,0.0062 -0.06194,-0.0727 -0.06194,-0.0727 0.233074,-0.46889 0.233073,-0.468892 0.856189,-1.667244 0.85619,-1.667245 0.41769,-0.85935 0.417689,-0.859349 -0.02911,-0.04578 -0.02911,-0.04576 -1.464266,0.01887 -1.464263,0.01887 -0.09348,-0.0485 -0.09349,-0.0485 -0.0011,-0.08618 -0.0011,-0.08616 0.11036,-0.213586 0.110359,-0.213582 1.014121,-2.024324 1.014119,-2.024327 0.696804,-1.43016 0.696802,-1.4301581 0.701201,-1.4012125 0.701198,-1.4012124 2.501594,-0.044655 2.501597,-0.044655 0.03154,0.079108 0.03152,0.079108 -0.04589,0.1264481 -0.04587,0.1264636 -0.768293,1.3291372 -0.768291,1.3291355 -0.6677,1.1797846 -0.6677,1.179784 0.02576,0.06464 0.02576,0.06464 1.695367,-0.02185 1.695368,-0.02185 0.07639,0.07444 0.07639,0.07446 7.89e-4,0.06124 7.9e-4,0.06124 -0.249474,0.406592 -0.249474,0.40659 -0.614255,0.968038 -0.614255,0.968039 -1.187109,1.911536 -1.187107,1.91154 -0.06878,0.13724 -0.06879,0.13724 0.02683,0.06732 0.02683,0.06732 1.62427,-0.02093 1.624265,-0.02093 0.09295,0.06616 0.09294,0.06612 -0.04534,0.122827 -0.04534,0.122843 -1.34915,1.664026 -1.349152,1.664023 -0.8062,1.018519 -0.8062,1.018517 -0.670268,0.824742 -0.670264,0.824741 -1.724844,2.146499 -1.724842,2.146498 -0.05964,7.69e-4 -0.05966,7.69e-4 z" fill="#ffd22a" stroke="#fff" stroke-width="0.4" stroke-linejoin="round" stroke-linecap="round"/>
    </g>
  </svg>

  <!-- @lazarv (text-xs = 12px, font-normal, dark:text-yellow-500) -->
  <text x="250" y="71" font-family="ui-sans-serif,system-ui,sans-serif,Apple Color Emoji,Segoe UI Emoji,Segoe UI Symbol,Noto Color Emoji" font-size="12" font-weight="500" fill="#eab308">@lazarv</text>

  <!-- react-server (text-6xl = 60px, font-semibold, -mt-4, dark:text-yellow-500) -->
  <text x="250" y="111" font-family="ui-sans-serif,system-ui,sans-serif,Apple Color Emoji,Segoe UI Emoji,Segoe UI Symbol,Noto Color Emoji" font-size="60" font-weight="600" fill="#eab308">react-server</text>

  <!-- Subtitle (edit this text to change the subtitle) -->
  <text x="250" y="135" font-family="ui-sans-serif,system-ui,sans-serif,Apple Color Emoji,Segoe UI Emoji,Segoe UI Symbol,Noto Color Emoji" font-size="18" font-weight="600" fill="#a1a1aa">Run React anywhere</text>
</svg>
