<svg xmlns="http://www.w3.org/2000/svg" viewBox="0 0 512 512"><path fill="currentColor" d="M71.357 460.819L30.272 0h451.456l-41.129 460.746L255.724 512z"/><path fill="currentColor" opacity="0.8" d="M256 480.523l155.886-43.289L447.314 37.4H256z"/><path fill="#fff" d="M256 268.217h-60.09l-4.14-46.32H256v-45.41H142.132l1.08 12.15 11.16 125.04H256zm0 117.69l-.2.06-50.55-13.66-3.23-36.22h-45.58l6.36 71.3 93.02 25.82.18-.05z"/><path fill="#fff" d="M255.843 268.217v45.41h55.9l-5.27 58.89-50.63 13.67v47.2l93.1-25.8 .69-7.67 10.68-119.72 1.1-11.98zm0-91.73v45.41h109.87l.91-10.19 2.06-22.93 1.09-12.29z"/></svg>
